<?xml version="1.0" encoding="utf-8"?>
<!-- Generator: Adobe Illustrator 18.0.0, SVG Export Plug-In . SVG Version: 6.00 Build 0)  -->
<!DOCTYPE svg PUBLIC "-//W3C//DTD SVG 1.1//EN" "http://www.w3.org/Graphics/SVG/1.1/DTD/svg11.dtd">
<svg version="1.1" xmlns="http://www.w3.org/2000/svg" xmlns:xlink="http://www.w3.org/1999/xlink" x="0px" y="0px" width="360.7px"
	 height="72px" viewBox="0 0 360.7 72" enable-background="new 0 0 360.7 72" xml:space="preserve">
<g id="Layer_1">
</g>
<g id="Layer_2">
	<g>
		<path d="M18.4,42V28.1h3.8l3.3,9.8l3.4-9.8h3.4V42h-2.7V31.5l-3.4,9.5H24l-3.3-9.7V42H18.4z"/>
		<path d="M41.9,42.4c-2.1,0-3.8-0.7-5.1-2c-1.3-1.3-1.9-3.1-1.9-5.3c0-2.2,0.6-4,1.9-5.3c1.3-1.3,3-2,5.1-2c2.1,0,3.8,0.7,5.1,2
			c1.3,1.3,1.9,3.1,1.9,5.3c0,2.3-0.6,4-1.9,5.4C45.8,41.7,44.1,42.4,41.9,42.4z M41.9,40.5c1.2,0,2.2-0.5,2.9-1.5
			c0.7-1,1.1-2.3,1.1-3.9c0-1.6-0.4-2.9-1.1-3.9s-1.7-1.5-2.9-1.5c-1.2,0-2.2,0.5-2.9,1.5S38,33.4,38,35.1c0,1.6,0.4,2.9,1.1,3.9
			C39.8,40,40.8,40.5,41.9,40.5z"/>
		<path d="M51.6,42V28.1h5.2c2.8,0,4.2,1.1,4.2,3.4c0,0.9-0.2,1.6-0.7,2.3s-1.1,1.2-2,1.6l4.5,6.5h-3.5l-3.4-5.7h-1.6V42H51.6z
			 M54.3,34.4H55c2.1,0,3.1-0.8,3.1-2.5c0-1.2-0.9-1.9-2.8-1.9h-1V34.4z"/>
		<path d="M64.9,42V28.1h8.7V30h-5.8v3.9h4.7v1.9h-4.7V40H74v2H64.9z"/>
		<path d="M86.2,42V30h-5v-1.9H94V30h-5v12H86.2z"/>
		<path d="M96,42V28.1h2.9v5.6h5.7v-5.6h2.9V42h-2.9v-6.3h-5.7V42H96z"/>
		<path d="M109.4,42l5.4-13.9h2.9l5.4,13.9h-3l-1.4-3.7H113l-1.4,3.7H109.4z M113.7,36.5h4.3l-2.2-5.5L113.7,36.5z"/>
		<path d="M125.1,42V28.1h2.5l6.4,9.5v-9.5h2.3V42h-2.6l-6.4-9.5V42H125.1z"/>
		<path d="M143.8,44.5l0-2.1c0.7,0.3,1.5,0.4,2.3,0.4c0.7,0,1.1-0.2,1.4-0.6c0.2-0.4,0.4-1,0.4-2V28.1h2.9V40c0,1.7-0.3,2.9-1,3.7
			c-0.7,0.7-1.8,1.1-3.4,1.1C145.5,44.8,144.6,44.7,143.8,44.5z"/>
		<path d="M154.1,28.1h2.9v8.5c0,1.3,0.2,2.3,0.7,2.9c0.4,0.6,1.2,0.9,2.1,0.9c0.9,0,1.6-0.3,2-0.9c0.4-0.6,0.6-1.5,0.6-2.7v-8.7
			h2.5v8.5c0,1.3-0.1,2.3-0.4,2.9s-0.7,1.3-1.3,1.7c-0.9,0.7-2.1,1-3.6,1c-1.6,0-2.9-0.4-3.8-1.1c-0.7-0.5-1.1-1.1-1.4-1.8
			c-0.3-0.7-0.4-1.6-0.4-2.9V28.1z"/>
		<path d="M167.5,41.9v-2.4c1.5,0.6,2.8,0.9,3.8,0.9c0.7,0,1.3-0.2,1.8-0.5s0.6-0.8,0.6-1.3c0-0.4-0.1-0.8-0.4-1.1
			c-0.3-0.3-0.8-0.7-1.5-1.1l-0.9-0.5c-1.2-0.7-2.1-1.4-2.6-2c-0.5-0.6-0.8-1.4-0.8-2.2c0-1.1,0.4-2.1,1.3-2.8s2-1,3.3-1
			c1.1,0,2.4,0.2,3.7,0.5v2.2c-1.4-0.5-2.5-0.8-3.4-0.8c-0.6,0-1.1,0.1-1.5,0.4c-0.4,0.3-0.6,0.7-0.6,1.1c0,0.4,0.1,0.7,0.4,1
			c0.3,0.3,0.8,0.6,1.5,1.1l1,0.6c1.3,0.8,2.3,1.4,2.8,2.1c0.5,0.6,0.8,1.4,0.8,2.3c0,1.3-0.5,2.3-1.4,3c-1,0.7-2.3,1.1-4,1.1
			C170.3,42.4,169,42.2,167.5,41.9z"/>
		<path d="M182.7,42V30h-5v-1.9h12.8V30h-5v12H182.7z"/>
		<path d="M202.3,42V30h-5v-1.9h12.8V30h-5v12H202.3z"/>
		<path d="M212.1,42V28.1h2.9v5.6h5.7v-5.6h2.9V42h-2.9v-6.3H215V42H212.1z"/>
		<path d="M227,42V28.1h8.7V30h-5.8v3.9h4.7v1.9h-4.7V40h6.2v2H227z"/>
		<path d="M244.9,42V28.1h4.7c1.4,0,2.5,0.3,3.2,0.8c0.7,0.5,1.1,1.3,1.1,2.3c0,1.7-1.1,2.8-3.3,3.5c2.6,0.6,3.9,1.9,3.9,3.8
			c0,1.1-0.4,2-1.1,2.5S251.5,42,250,42H244.9z M247.6,33.9h0.7c0.8,0,1.5-0.2,1.9-0.6c0.5-0.4,0.7-0.9,0.7-1.6
			c0-0.6-0.2-1.1-0.6-1.3c-0.4-0.2-1.1-0.3-2.2-0.3h-0.6V33.9z M247.6,40h0.6c1.2,0,2-0.1,2.5-0.4c0.5-0.3,0.7-0.7,0.7-1.4
			c0-0.7-0.3-1.3-0.9-1.8c-0.6-0.5-1.4-0.7-2.3-0.7h-0.6V40z"/>
		<path d="M255.5,42l5.4-13.9h2.9l5.4,13.9h-3l-1.4-3.7H259l-1.4,3.7H255.5z M259.7,36.5h4.3l-2.2-5.5L259.7,36.5z"/>
		<path d="M282.3,41.5c-1.3,0.6-2.9,0.9-4.8,0.9c-2.3,0-4-0.6-5.3-1.9s-1.9-3.1-1.9-5.4c0-2.3,0.6-4.1,1.9-5.4
			c1.3-1.3,3.1-1.9,5.5-1.9c1.5,0,3,0.2,4.5,0.5v2.3c-1.7-0.6-3.1-0.9-4.3-0.9c-1.5,0-2.6,0.5-3.4,1.4c-0.8,0.9-1.2,2.2-1.2,4
			c0,1.7,0.4,3,1.3,3.9c0.9,0.9,2,1.4,3.6,1.4c1.4,0,2.7-0.3,4.1-1V41.5z"/>
		<path d="M284.8,42V28.1h2.8v6.7l5.3-6.7h2.4l-4.8,6.2l6,7.6h-3.6l-5.3-6.8V42H284.8z"/>
		<path d="M298.4,42V28.1h4.7c1.4,0,2.5,0.3,3.2,0.8c0.7,0.5,1.1,1.3,1.1,2.3c0,1.7-1.1,2.8-3.3,3.5c2.6,0.6,3.9,1.9,3.9,3.8
			c0,1.1-0.4,2-1.1,2.5c-0.8,0.6-1.8,0.9-3.3,0.9H298.4z M301.1,33.9h0.7c0.8,0,1.5-0.2,1.9-0.6c0.5-0.4,0.7-0.9,0.7-1.6
			c0-0.6-0.2-1.1-0.6-1.3c-0.4-0.2-1.1-0.3-2.2-0.3h-0.6V33.9z M301.1,40h0.6c1.2,0,2-0.1,2.5-0.4c0.5-0.3,0.7-0.7,0.7-1.4
			c0-0.7-0.3-1.3-0.9-1.8c-0.6-0.5-1.4-0.7-2.3-0.7h-0.6V40z"/>
		<path d="M316.6,42.4c-2.1,0-3.8-0.7-5.1-2c-1.3-1.3-1.9-3.1-1.9-5.3c0-2.2,0.6-4,1.9-5.3c1.3-1.3,3-2,5.1-2c2.1,0,3.8,0.7,5.1,2
			c1.3,1.3,1.9,3.1,1.9,5.3c0,2.3-0.6,4-1.9,5.4C320.5,41.7,318.8,42.4,316.6,42.4z M316.6,40.5c1.2,0,2.2-0.5,2.9-1.5
			c0.7-1,1.1-2.3,1.1-3.9c0-1.6-0.4-2.9-1.1-3.9s-1.7-1.5-2.9-1.5c-1.2,0-2.2,0.5-2.9,1.5s-1.1,2.3-1.1,3.9c0,1.6,0.4,2.9,1.1,3.9
			C314.5,40,315.4,40.5,316.6,40.5z"/>
		<path d="M326.3,42V28.1h2.5l6.4,9.5v-9.5h2.3V42H335l-6.4-9.5V42H326.3z"/>
		<path d="M341,42V28.1h8.7V30h-5.8v3.9h4.7v1.9h-4.7V40h6.2v2H341z"/>
	</g>
</g>
</svg>
