<?xml version="1.0" encoding="utf-8"?>
<!-- Generator: Adobe Illustrator 18.0.0, SVG Export Plug-In . SVG Version: 6.00 Build 0)  -->
<!DOCTYPE svg PUBLIC "-//W3C//DTD SVG 1.1//EN" "http://www.w3.org/Graphics/SVG/1.1/DTD/svg11.dtd">
<svg version="1.1" xmlns="http://www.w3.org/2000/svg" xmlns:xlink="http://www.w3.org/1999/xlink" x="0px" y="0px" width="428px"
	 height="130.5px" viewBox="0 0 428 130.5" enable-background="new 0 0 428 130.5" xml:space="preserve">
<g id="Layer_1">
</g>
<g id="Layer_2">
	<path d="M94.6,44.9c-4.2-2.4-12.8-5-13.1-9.8s0-6.9-5.5-9.9s-7.9-3.1-10.1-2.5s-3.9,2.4-8.1,2.8c-3.2,0.3-7-0.4-9.3-1.6
		c-3.7-1.8-6,1-7.9,3.7c-1.5,2.1-1.7,5.2-1.7,6.4c0,1.2,1.2,2.9,0.9,4.8c-0.2,1.8-1.7,4.8-2.8,9.1c-1.4,5.5-2,15.4,0.9,23.4
		s1.9,10.1,1.4,13.1s-1,8-0.8,9s10.6,11.1,25,7.5S80.8,90.6,81.2,90s-2.1-5-4.1-9.6S75.9,69.5,78.2,65s4.1-6.5,6.8-6.5
		s7.2,3,10.2-2.5S98.8,47.2,94.6,44.9z M59.1,43.3c1.2,0,2.2,1,2.2,2.2c0,1.2-1,2.2-2.2,2.2c-1.2,0-2.2-1-2.2-2.2
		C56.9,44.3,57.9,43.3,59.1,43.3z M54.8,51.5c1.4,0,2.6,1.2,2.6,2.6s-1.2,2.6-2.6,2.6s-2.6-1.2-2.6-2.6S53.4,51.5,54.8,51.5z
		 M50.4,63.8c0-1.6,1.3-2.9,2.9-2.9s2.9,1.3,2.9,2.9c0,1.6-1.3,2.9-2.9,2.9S50.4,65.4,50.4,63.8z M55.8,75.7c-1.5,0-2.8-1.2-2.8-2.8
		c0-1.5,1.2-2.8,2.8-2.8s2.8,1.2,2.8,2.8C58.6,74.5,57.3,75.7,55.8,75.7z M58.1,82c0-1.3,1.1-2.4,2.4-2.4s2.4,1.1,2.4,2.4
		s-1.1,2.4-2.4,2.4S58.1,83.3,58.1,82z M60.3,96.2c-0.7,0-1.2-0.6-1.2-1.2c0-0.7,0.6-1.2,1.2-1.2c0.7,0,1.2,0.6,1.2,1.2
		C61.5,95.6,61,96.2,60.3,96.2z M62.1,91.2c-1,0-1.9-0.8-1.9-1.9c0-1,0.8-1.9,1.9-1.9s1.9,0.8,1.9,1.9C64,90.4,63.2,91.2,62.1,91.2z
		 M64.9,39.2c-1.1,0-2-0.9-2-2s0.9-2,2-2s2,0.9,2,2S66,39.2,64.9,39.2z M70.8,32c-0.9,0-1.6-0.7-1.6-1.6s0.7-1.6,1.6-1.6
		s1.6,0.7,1.6,1.6S71.7,32,70.8,32z"/>
	<g>
		<path d="M136.6,89.8c-2.5,0.7-4.5,1.1-5.9,1.1c-9.1,0-13.7-4.3-13.7-12.8V57.6h-4.4v-6.6h4.4v-6.6l10.5-1.2v7.8h8.3v6.6h-8.3v19.1
			c0,4.8,2,7.2,5.9,7.2c0.9,0,2-0.2,3.2-0.5V89.8z"/>
		<path d="M162.3,90.9c-6.1,0-10.9-1.8-14.5-5.5c-3.6-3.7-5.4-8.6-5.4-14.8c0-6.3,1.8-11.3,5.4-14.9c3.6-3.6,8.5-5.5,14.7-5.5
			c6.2,0,11.1,1.8,14.7,5.5c3.6,3.6,5.4,8.6,5.4,14.8c0,6.4-1.8,11.4-5.4,15C173.7,89.1,168.7,90.9,162.3,90.9z M162.5,84.3
			c6,0,9-4.6,9-13.9c0-4.2-0.8-7.6-2.4-10c-1.6-2.5-3.8-3.7-6.6-3.7c-2.8,0-4.9,1.2-6.5,3.7c-1.6,2.5-2.4,5.8-2.4,10.1
			c0,4.2,0.8,7.6,2.4,10.1C157.6,83.1,159.8,84.3,162.5,84.3z"/>
		<path d="M192.4,90V51.1h10.5v7.3c2.7-5.5,6.9-8.2,12.4-8.2c0.7,0,1.3,0.1,2,0.2v9.4c-1.5-0.5-2.9-0.8-4.1-0.8
			c-4.2,0-7.6,2.1-10.2,6.3V90H192.4z"/>
		<path d="M224.4,88.7V81c5.2,2.2,9.6,3.3,13.3,3.3c4.3,0,6.5-1.5,6.5-4.4c0-1.9-1.8-3.5-5.3-5l-3.5-1.4c-3.9-1.6-6.6-3.2-8.3-5
			c-1.7-1.8-2.5-4-2.5-6.7c0-3.7,1.4-6.6,4.2-8.6c2.8-2,6.7-3.1,11.8-3.1c3.2,0,6.9,0.5,11.3,1.4v7.4c-4.2-1.5-7.7-2.2-10.5-2.2
			c-4.4,0-6.5,1.3-6.5,4c0,1.8,1.6,3.3,4.8,4.5l3,1.2c4.6,1.7,7.7,3.5,9.5,5.2c1.8,1.8,2.7,4.1,2.7,6.8c0,3.7-1.5,6.6-4.6,8.9
			c-3,2.3-7,3.4-11.9,3.4C233.9,90.9,229.1,90.2,224.4,88.7z"/>
		<path d="M282.8,90.9c-6.1,0-10.9-1.8-14.5-5.5c-3.6-3.7-5.4-8.6-5.4-14.8c0-6.3,1.8-11.3,5.4-14.9c3.6-3.6,8.5-5.5,14.7-5.5
			c6.2,0,11.1,1.8,14.7,5.5c3.6,3.6,5.4,8.6,5.4,14.8c0,6.4-1.8,11.4-5.4,15C294.1,89.1,289.2,90.9,282.8,90.9z M283,84.3
			c6,0,9-4.6,9-13.9c0-4.2-0.8-7.6-2.4-10c-1.6-2.5-3.8-3.7-6.6-3.7c-2.8,0-4.9,1.2-6.5,3.7c-1.6,2.5-2.4,5.8-2.4,10.1
			c0,4.2,0.8,7.6,2.4,10.1C278.1,83.1,280.2,84.3,283,84.3z"/>
		<path d="M309.6,90V78.6H321V90H309.6z"/>
		<path d="M317.9,103.2v-7c3,1.4,5.7,2.1,7.8,2.1c2,0,3.5-0.6,4.3-1.9c0.9-1.3,1.3-3.4,1.3-6.4V51.1h10.5v38.2
			c0,5.4-1.2,9.4-3.6,11.9c-2.4,2.5-6.3,3.7-11.6,3.7C324.2,104.9,321.3,104.3,317.9,103.2z M331.3,44.5v-8.8h10.5v8.8H331.3z"/>
		<path d="M353.9,88.7V81c5.2,2.2,9.6,3.3,13.3,3.3c4.3,0,6.5-1.5,6.5-4.4c0-1.9-1.8-3.5-5.3-5l-3.5-1.4c-3.9-1.6-6.6-3.2-8.3-5
			c-1.7-1.8-2.5-4-2.5-6.7c0-3.7,1.4-6.6,4.2-8.6c2.8-2,6.7-3.1,11.8-3.1c3.2,0,6.9,0.5,11.3,1.4v7.4c-4.2-1.5-7.7-2.2-10.5-2.2
			c-4.4,0-6.5,1.3-6.5,4c0,1.8,1.6,3.3,4.8,4.5l3,1.2c4.6,1.7,7.7,3.5,9.5,5.2c1.8,1.8,2.7,4.1,2.7,6.8c0,3.7-1.5,6.6-4.6,8.9
			c-3,2.3-7,3.4-11.9,3.4C363.4,90.9,358.7,90.2,353.9,88.7z"/>
	</g>
</g>
</svg>
