<?xml version="1.0" encoding="utf-8"?>
<!-- Generator: Adobe Illustrator 18.0.0, SVG Export Plug-In . SVG Version: 6.00 Build 0)  -->
<!DOCTYPE svg PUBLIC "-//W3C//DTD SVG 1.1//EN" "http://www.w3.org/Graphics/SVG/1.1/DTD/svg11.dtd">
<svg version="1.1" xmlns="http://www.w3.org/2000/svg" xmlns:xlink="http://www.w3.org/1999/xlink" x="0px" y="0px" width="478.5px"
	 height="130.5px" viewBox="0 0 478.5 130.5" enable-background="new 0 0 478.5 130.5" xml:space="preserve">
<g id="Layer_1">
</g>
<g id="Layer_2">
	<path d="M94.6,44.9c-4.2-2.4-12.8-5-13.1-9.8s0-6.9-5.5-9.9s-7.9-3.1-10.1-2.5s-3.9,2.4-8.1,2.8c-3.2,0.3-7-0.4-9.3-1.6
		c-3.7-1.8-6,1-7.9,3.7c-1.5,2.1-1.7,5.2-1.7,6.4c0,1.2,1.2,2.9,0.9,4.8c-0.2,1.8-1.7,4.8-2.8,9.1c-1.4,5.5-2,15.4,0.9,23.4
		s1.9,10.1,1.4,13.1s-1,8-0.8,9s10.6,11.1,25,7.5S80.8,90.6,81.2,90s-2.1-5-4.1-9.6S75.9,69.5,78.2,65s4.1-6.5,6.8-6.5
		s7.2,3,10.2-2.5S98.8,47.2,94.6,44.9z M59.1,43.3c1.2,0,2.2,1,2.2,2.2c0,1.2-1,2.2-2.2,2.2c-1.2,0-2.2-1-2.2-2.2
		C56.9,44.3,57.9,43.3,59.1,43.3z M54.8,51.5c1.4,0,2.6,1.2,2.6,2.6s-1.2,2.6-2.6,2.6s-2.6-1.2-2.6-2.6S53.4,51.5,54.8,51.5z
		 M50.4,63.8c0-1.6,1.3-2.9,2.9-2.9s2.9,1.3,2.9,2.9c0,1.6-1.3,2.9-2.9,2.9S50.4,65.4,50.4,63.8z M55.8,75.7c-1.5,0-2.8-1.2-2.8-2.8
		c0-1.5,1.2-2.8,2.8-2.8s2.8,1.2,2.8,2.8C58.6,74.5,57.3,75.7,55.8,75.7z M58.1,82c0-1.3,1.1-2.4,2.4-2.4s2.4,1.1,2.4,2.4
		s-1.1,2.4-2.4,2.4S58.1,83.3,58.1,82z M60.3,96.2c-0.7,0-1.2-0.6-1.2-1.2c0-0.7,0.6-1.2,1.2-1.2c0.7,0,1.2,0.6,1.2,1.2
		C61.5,95.6,61,96.2,60.3,96.2z M62.1,91.2c-1,0-1.9-0.8-1.9-1.9c0-1,0.8-1.9,1.9-1.9s1.9,0.8,1.9,1.9C64,90.4,63.2,91.2,62.1,91.2z
		 M64.9,39.2c-1.1,0-2-0.9-2-2s0.9-2,2-2s2,0.9,2,2S66,39.2,64.9,39.2z M70.8,32c-0.9,0-1.6-0.7-1.6-1.6s0.7-1.6,1.6-1.6
		s1.6,0.7,1.6,1.6S71.7,32,70.8,32z"/>
	<g>
		<path d="M111.6,64v-31h5.8v13.5c1.5-3,3.8-4.6,7-4.6c2.6,0,4.6,0.9,6.1,2.8c1.5,1.9,2.2,4.5,2.2,7.8c0,3.6-0.8,6.5-2.5,8.6
			c-1.7,2.2-3.9,3.2-6.7,3.2c-2.4,0-4.5-0.9-6.2-2.7l-1.1,2.2H111.6z M117.4,58.4c1.4,1.6,2.9,2.4,4.5,2.4c1.4,0,2.6-0.7,3.4-2.1
			c0.9-1.4,1.3-3.2,1.3-5.5c0-4.4-1.4-6.6-4.3-6.6c-1.7,0-3.4,1.1-4.9,3.3V58.4z"/>
		<path d="M148.8,61.7c-1.9,1.9-4,2.8-6.2,2.8c-1.9,0-3.4-0.6-4.6-1.7s-1.8-2.6-1.8-4.5c0-2.4,1-4.2,2.9-5.5
			c1.9-1.3,4.6-1.9,8.2-1.9h1.6v-2c0-2.2-1.3-3.4-3.8-3.4c-2.3,0-4.6,0.6-6.9,1.9v-4c2.6-1,5.2-1.5,7.8-1.5c5.6,0,8.5,2.2,8.5,6.7
			v9.5c0,1.7,0.5,2.5,1.6,2.5c0.2,0,0.5,0,0.8-0.1l0.1,3.3c-1.2,0.4-2.3,0.5-3.3,0.5c-2.4,0-3.9-0.9-4.6-2.8H148.8z M148.8,58.6
			v-4.4h-1.4c-3.8,0-5.6,1.2-5.6,3.5c0,0.8,0.3,1.5,0.8,2c0.5,0.5,1.2,0.8,2,0.8C146,60.6,147.4,59.9,148.8,58.6z"/>
		<path d="M177.8,63.6c-2.4,0.6-4.6,1-6.7,1c-3.4,0-6.2-1-8.2-3c-2-2-3-4.8-3-8.2c0-3.5,1-6.3,3.1-8.3c2.1-2,4.9-3,8.5-3
			c1.8,0,3.8,0.3,6.1,0.8v4.2c-2.4-0.8-4.3-1.2-5.7-1.2c-1.7,0-3.1,0.7-4.2,2s-1.6,3.1-1.6,5.3c0,2.3,0.6,4.1,1.7,5.4
			c1.1,1.4,2.7,2,4.6,2c1.7,0,3.5-0.4,5.4-1.1V63.6z"/>
		<path d="M183.3,64v-31h5.8v19.5h0.4l7.7-10h4.8l-7.1,9.2l9.3,12.3h-7.1l-7.7-10.8h-0.4V64H183.3z"/>
		<path d="M208.7,64v-31h5.8v13.5c1.5-3,3.8-4.6,7-4.6c2.6,0,4.6,0.9,6.1,2.8c1.5,1.9,2.2,4.5,2.2,7.8c0,3.6-0.8,6.5-2.5,8.6
			c-1.7,2.2-3.9,3.2-6.7,3.2c-2.4,0-4.5-0.9-6.2-2.7l-1.1,2.2H208.7z M214.5,58.4c1.4,1.6,2.9,2.4,4.5,2.4c1.4,0,2.6-0.7,3.4-2.1
			c0.9-1.4,1.3-3.2,1.3-5.5c0-4.4-1.4-6.6-4.3-6.6c-1.7,0-3.4,1.1-4.9,3.3V58.4z"/>
		<path d="M244.4,64.5c-3.4,0-6-1-8-3.1c-2-2-3-4.8-3-8.2c0-3.5,1-6.2,3-8.2s4.7-3,8.1-3c3.4,0,6.2,1,8.2,3s3,4.7,3,8.2
			c0,3.5-1,6.3-3,8.3C250.6,63.5,247.9,64.5,244.4,64.5z M244.5,60.9c3.3,0,5-2.6,5-7.7c0-2.3-0.4-4.2-1.3-5.6c-0.9-1.4-2.1-2-3.6-2
			c-1.5,0-2.7,0.7-3.6,2c-0.9,1.4-1.3,3.2-1.3,5.6c0,2.3,0.4,4.2,1.3,5.6C241.7,60.2,242.9,60.9,244.5,60.9z"/>
		<path d="M261,64V42.5h5.8v4.1c1.9-3,4.3-4.6,7.3-4.6c1.9,0,3.4,0.6,4.6,1.8c1.1,1.2,1.7,2.9,1.7,5V64h-5.8V50.3
			c0-2.4-0.8-3.7-2.4-3.7c-1.8,0-3.6,1.3-5.3,3.9V64H261z"/>
		<path d="M304.9,63.3c-2.8,0.8-5.4,1.2-7.8,1.2c-3.6,0-6.4-1-8.5-3.1c-2.1-2-3.1-4.8-3.1-8.4c0-3.3,1-6,2.9-8.1
			c1.9-2,4.4-3.1,7.5-3.1c3.2,0,5.5,1,6.9,3c1.5,2,2.2,5.1,2.2,9.4h-13.4c0.4,4.1,2.6,6.2,6.8,6.2c1.9,0,4.1-0.5,6.6-1.4V63.3z
			 M291.5,51.2h7.7c0-3.7-1.2-5.5-3.6-5.5C293.2,45.6,291.8,47.5,291.5,51.2z"/>
		<path d="M311.1,53.4v-3.6h17.9v3.6H311.1z"/>
		<path d="M347.7,63.9c-1.4,0.4-2.5,0.6-3.3,0.6c-5,0-7.6-2.4-7.6-7.1V46.1h-2.4v-3.6h2.4v-3.6l5.8-0.7v4.3h4.6v3.6h-4.6v10.6
			c0,2.6,1.1,4,3.2,4c0.5,0,1.1-0.1,1.8-0.3V63.9z"/>
		<path d="M361.9,64.5c-3.4,0-6-1-8-3.1c-2-2-3-4.8-3-8.2c0-3.5,1-6.2,3-8.2s4.7-3,8.1-3c3.4,0,6.2,1,8.2,3s3,4.7,3,8.2
			c0,3.5-1,6.3-3,8.3C368.2,63.5,365.4,64.5,361.9,64.5z M362,60.9c3.3,0,5-2.6,5-7.7c0-2.3-0.4-4.2-1.3-5.6c-0.9-1.4-2.1-2-3.6-2
			c-1.5,0-2.7,0.7-3.6,2c-0.9,1.4-1.3,3.2-1.3,5.6c0,2.3,0.4,4.2,1.3,5.6C359.3,60.2,360.5,60.9,362,60.9z"/>
		<path d="M378.5,64V42.5h5.8v4.1c1.5-3,3.8-4.6,6.9-4.6c0.4,0,0.7,0,1.1,0.1v5.2c-0.8-0.3-1.6-0.5-2.3-0.5c-2.3,0-4.2,1.2-5.7,3.5
			V64H378.5z"/>
		<path d="M396.2,63.4v-4.3c2.9,1.2,5.3,1.8,7.4,1.8c2.4,0,3.6-0.8,3.6-2.4c0-1-1-2-2.9-2.7l-2-0.8c-2.1-0.9-3.7-1.8-4.6-2.8
			c-0.9-1-1.4-2.2-1.4-3.7c0-2,0.8-3.6,2.3-4.8c1.6-1.1,3.7-1.7,6.5-1.7c1.8,0,3.8,0.3,6.3,0.8v4.1c-2.3-0.8-4.3-1.2-5.8-1.2
			c-2.4,0-3.6,0.7-3.6,2.2c0,1,0.9,1.8,2.7,2.5l1.7,0.6c2.5,1,4.3,1.9,5.3,2.9c1,1,1.5,2.2,1.5,3.8c0,2-0.8,3.7-2.5,4.9
			s-3.9,1.9-6.6,1.9C401.5,64.5,398.9,64.1,396.2,63.4z"/>
		<path d="M428.5,64.5c-3.4,0-6-1-8-3.1c-2-2-3-4.8-3-8.2c0-3.5,1-6.2,3-8.2s4.7-3,8.1-3c3.4,0,6.2,1,8.2,3s3,4.7,3,8.2
			c0,3.5-1,6.3-3,8.3C434.8,63.5,432.1,64.5,428.5,64.5z M428.6,60.9c3.3,0,5-2.6,5-7.7c0-2.3-0.4-4.2-1.3-5.6c-0.9-1.4-2.1-2-3.6-2
			c-1.5,0-2.7,0.7-3.6,2c-0.9,1.4-1.3,3.2-1.3,5.6c0,2.3,0.4,4.2,1.3,5.6C425.9,60.2,427.1,60.9,428.6,60.9z"/>
	</g>
	<g>
		<path d="M111.7,93.5V79.6h3.8l3.3,9.8l3.4-9.8h3.4v13.9H123V83l-3.4,9.5h-2.3l-3.3-9.7v10.6H111.7z"/>
		<path d="M135.2,93.9c-2.1,0-3.8-0.7-5.1-2c-1.3-1.3-1.9-3.1-1.9-5.3c0-2.2,0.6-4,1.9-5.3c1.3-1.3,3-2,5.1-2c2.1,0,3.8,0.7,5.1,2
			c1.3,1.3,1.9,3.1,1.9,5.3c0,2.3-0.6,4-1.9,5.4C139.2,93.2,137.4,93.9,135.2,93.9z M135.3,92c1.2,0,2.2-0.5,2.9-1.5
			c0.7-1,1.1-2.3,1.1-3.9c0-1.6-0.4-2.9-1.1-3.9s-1.7-1.5-2.9-1.5c-1.2,0-2.2,0.5-2.9,1.5s-1.1,2.3-1.1,3.9c0,1.6,0.4,2.9,1.1,3.9
			C133.2,91.5,134.1,92,135.3,92z"/>
		<path d="M145,93.5V79.6h5.2c2.8,0,4.2,1.1,4.2,3.4c0,0.9-0.2,1.6-0.7,2.3s-1.1,1.2-2,1.6l4.5,6.5h-3.5l-3.4-5.7h-1.6v5.7H145z
			 M147.7,85.9h0.7c2.1,0,3.1-0.8,3.1-2.5c0-1.2-0.9-1.9-2.8-1.9h-1V85.9z"/>
		<path d="M158.2,93.5V79.6h8.7v1.9h-5.8v3.9h4.7v1.9h-4.7v4.3h6.2v2H158.2z"/>
		<path d="M179.5,93.5v-12h-5v-1.9h12.8v1.9h-5v12H179.5z"/>
		<path d="M189.3,93.5V79.6h2.9v5.6h5.7v-5.6h2.9v13.9h-2.9v-6.3h-5.7v6.3H189.3z"/>
		<path d="M202.7,93.5l5.4-13.9h2.9l5.4,13.9h-3l-1.4-3.7h-5.7l-1.4,3.7H202.7z M207,88h4.3l-2.2-5.5L207,88z"/>
		<path d="M218.4,93.5V79.6h2.5l6.4,9.5v-9.5h2.3v13.9h-2.6l-6.4-9.5v9.5H218.4z"/>
		<path d="M237.1,96l0-2.1c0.7,0.3,1.5,0.4,2.3,0.4c0.7,0,1.1-0.2,1.4-0.6c0.2-0.4,0.4-1,0.4-2V79.6h2.9v11.8c0,1.7-0.3,2.9-1,3.7
			c-0.7,0.7-1.8,1.1-3.4,1.1C238.8,96.3,238,96.2,237.1,96z"/>
		<path d="M247.4,79.6h2.9v8.5c0,1.3,0.2,2.3,0.7,2.9c0.4,0.6,1.2,0.9,2.1,0.9c0.9,0,1.6-0.3,2-0.9c0.4-0.6,0.6-1.5,0.6-2.7v-8.7
			h2.5v8.5c0,1.3-0.1,2.3-0.4,2.9s-0.7,1.3-1.3,1.7c-0.9,0.7-2.1,1-3.6,1c-1.6,0-2.9-0.4-3.8-1.1c-0.7-0.5-1.1-1.1-1.4-1.8
			c-0.3-0.7-0.4-1.6-0.4-2.9V79.6z"/>
		<path d="M260.9,93.4V91c1.5,0.6,2.8,0.9,3.8,0.9c0.7,0,1.3-0.2,1.8-0.5s0.6-0.8,0.6-1.3c0-0.4-0.1-0.8-0.4-1.1
			c-0.3-0.3-0.8-0.7-1.5-1.1l-0.9-0.5c-1.2-0.7-2.1-1.4-2.6-2c-0.5-0.6-0.8-1.4-0.8-2.2c0-1.1,0.4-2.1,1.3-2.8s2-1,3.3-1
			c1.1,0,2.4,0.2,3.7,0.5V82c-1.4-0.5-2.5-0.8-3.4-0.8c-0.6,0-1.1,0.1-1.5,0.4c-0.4,0.3-0.6,0.7-0.6,1.1c0,0.4,0.1,0.7,0.4,1
			c0.3,0.3,0.8,0.6,1.5,1.1l1,0.6c1.3,0.8,2.3,1.4,2.8,2.1c0.5,0.6,0.8,1.4,0.8,2.3c0,1.3-0.5,2.3-1.4,3c-1,0.7-2.3,1.1-4,1.1
			C263.6,93.9,262.3,93.7,260.9,93.4z"/>
		<path d="M276,93.5v-12h-5v-1.9h12.8v1.9h-5v12H276z"/>
		<path d="M295.6,93.5v-12h-5v-1.9h12.8v1.9h-5v12H295.6z"/>
		<path d="M305.4,93.5V79.6h2.9v5.6h5.7v-5.6h2.9v13.9H314v-6.3h-5.7v6.3H305.4z"/>
		<path d="M320.4,93.5V79.6h8.7v1.9h-5.8v3.9h4.7v1.9h-4.7v4.3h6.2v2H320.4z"/>
		<path d="M338.2,93.5V79.6h4.7c1.4,0,2.5,0.3,3.2,0.8c0.7,0.5,1.1,1.3,1.1,2.3c0,1.7-1.1,2.8-3.3,3.5c2.6,0.6,3.9,1.9,3.9,3.8
			c0,1.1-0.4,2-1.1,2.5c-0.8,0.6-1.8,0.9-3.3,0.9H338.2z M340.9,85.4h0.7c0.8,0,1.5-0.2,1.9-0.6c0.5-0.4,0.7-0.9,0.7-1.6
			c0-0.6-0.2-1.1-0.6-1.3s-1.1-0.3-2.2-0.3h-0.6V85.4z M340.9,91.5h0.6c1.2,0,2-0.1,2.5-0.4c0.5-0.3,0.7-0.7,0.7-1.4
			c0-0.7-0.3-1.3-0.9-1.8c-0.6-0.5-1.4-0.7-2.3-0.7h-0.6V91.5z"/>
		<path d="M348.8,93.5l5.4-13.9h2.9l5.4,13.9h-3l-1.4-3.7h-5.7l-1.4,3.7H348.8z M353.1,88h4.3l-2.2-5.5L353.1,88z"/>
		<path d="M375.6,93c-1.3,0.6-2.9,0.9-4.8,0.9c-2.3,0-4-0.6-5.3-1.9c-1.3-1.3-1.9-3.1-1.9-5.4c0-2.3,0.6-4.1,1.9-5.4
			c1.3-1.3,3.1-1.9,5.5-1.9c1.5,0,3,0.2,4.5,0.5v2.3c-1.7-0.6-3.1-0.9-4.3-0.9c-1.5,0-2.6,0.5-3.4,1.4c-0.8,0.9-1.2,2.2-1.2,4
			c0,1.7,0.4,3,1.3,3.9c0.9,0.9,2,1.4,3.6,1.4c1.4,0,2.7-0.3,4.1-1V93z"/>
		<path d="M378.1,93.5V79.6h2.8v6.7l5.3-6.7h2.4l-4.8,6.2l6,7.6h-3.6l-5.3-6.8v6.8H378.1z"/>
		<path d="M391.7,93.5V79.6h4.7c1.4,0,2.5,0.3,3.2,0.8c0.7,0.5,1.1,1.3,1.1,2.3c0,1.7-1.1,2.8-3.3,3.5c2.6,0.6,3.9,1.9,3.9,3.8
			c0,1.1-0.4,2-1.1,2.5c-0.8,0.6-1.8,0.9-3.3,0.9H391.7z M394.5,85.4h0.7c0.8,0,1.5-0.2,1.9-0.6c0.5-0.4,0.7-0.9,0.7-1.6
			c0-0.6-0.2-1.1-0.6-1.3s-1.1-0.3-2.2-0.3h-0.6V85.4z M394.5,91.5h0.6c1.2,0,2-0.1,2.5-0.4c0.5-0.3,0.7-0.7,0.7-1.4
			c0-0.7-0.3-1.3-0.9-1.8c-0.6-0.5-1.4-0.7-2.3-0.7h-0.6V91.5z"/>
		<path d="M409.9,93.9c-2.1,0-3.8-0.7-5.1-2c-1.3-1.3-1.9-3.1-1.9-5.3c0-2.2,0.6-4,1.9-5.3c1.3-1.3,3-2,5.1-2c2.1,0,3.8,0.7,5.1,2
			c1.3,1.3,1.9,3.1,1.9,5.3c0,2.3-0.6,4-1.9,5.4C413.9,93.2,412.1,93.9,409.9,93.9z M410,92c1.2,0,2.2-0.5,2.9-1.5
			c0.7-1,1.1-2.3,1.1-3.9c0-1.6-0.4-2.9-1.1-3.9s-1.7-1.5-2.9-1.5c-1.2,0-2.2,0.5-2.9,1.5s-1.1,2.3-1.1,3.9c0,1.6,0.4,2.9,1.1,3.9
			C407.8,91.5,408.8,92,410,92z"/>
		<path d="M419.6,93.5V79.6h2.5l6.4,9.5v-9.5h2.3v13.9h-2.6l-6.4-9.5v9.5H419.6z"/>
		<path d="M434.4,93.5V79.6h8.7v1.9h-5.8v3.9h4.7v1.9h-4.7v4.3h6.2v2H434.4z"/>
	</g>
</g>
</svg>
