<?xml version="1.0" encoding="utf-8"?>
<!-- Generator: Adobe Illustrator 18.0.0, SVG Export Plug-In . SVG Version: 6.00 Build 0)  -->
<!DOCTYPE svg PUBLIC "-//W3C//DTD SVG 1.1//EN" "http://www.w3.org/Graphics/SVG/1.1/DTD/svg11.dtd">
<svg version="1.1" xmlns="http://www.w3.org/2000/svg" xmlns:xlink="http://www.w3.org/1999/xlink" x="0px" y="0px" width="404px"
	 height="72px" viewBox="0 0 404 72" enable-background="new 0 0 404 72" xml:space="preserve">
<g id="Layer_1">
</g>
<g id="Layer_2">
	<g>
		<path fill="#FFFFFF" d="M18.6,41V25.5h4.3l3.7,10.9l3.9-10.9h3.8V41h-3V29.3L27.5,40h-2.6l-3.7-10.8V41H18.6z"/>
		<path fill="#FFFFFF" d="M44.9,41.4c-2.4,0-4.2-0.7-5.7-2.2c-1.4-1.5-2.1-3.5-2.1-5.9c0-2.5,0.7-4.5,2.1-5.9
			c1.4-1.5,3.3-2.2,5.7-2.2c2.4,0,4.3,0.7,5.7,2.2c1.4,1.5,2.1,3.4,2.1,5.9c0,2.5-0.7,4.5-2.1,6S47.4,41.4,44.9,41.4z M45,39.3
			c1.4,0,2.5-0.5,3.3-1.6c0.8-1.1,1.2-2.6,1.2-4.4c0-1.8-0.4-3.3-1.2-4.3c-0.8-1.1-1.9-1.6-3.2-1.6c-1.4,0-2.4,0.5-3.2,1.6
			c-0.8,1.1-1.2,2.5-1.2,4.4c0,1.8,0.4,3.3,1.2,4.4C42.6,38.7,43.6,39.3,45,39.3z"/>
		<path fill="#FFFFFF" d="M55.8,41V25.5h5.8c3.2,0,4.7,1.3,4.7,3.9c0,1-0.3,1.8-0.8,2.6c-0.5,0.8-1.3,1.4-2.2,1.8l5.1,7.3h-3.9
			l-3.9-6.3h-1.8V41H55.8z M58.8,32.5h0.7c2.3,0,3.5-0.9,3.5-2.8c0-1.4-1-2.1-3.1-2.1h-1.1V32.5z"/>
		<path fill="#FFFFFF" d="M70.6,41V25.5h9.7v2.1h-6.5v4.3h5.3V34h-5.3v4.8h7V41H70.6z"/>
		<path fill="#FFFFFF" d="M94.5,41V27.6h-5.6v-2.1h14.4v2.1h-5.6V41H94.5z"/>
		<path fill="#FFFFFF" d="M105.4,41V25.5h3.2v6.3h6.4v-6.3h3.2V41h-3.2v-7.1h-6.4V41H105.4z"/>
		<path fill="#FFFFFF" d="M120.5,41l6-15.5h3.2l6,15.5h-3.3l-1.6-4.1h-6.4l-1.6,4.1H120.5z M125.3,34.8h4.8l-2.4-6.2L125.3,34.8z"/>
		<path fill="#FFFFFF" d="M138,41V25.5h2.8l7.2,10.6V25.5h2.6V41h-2.9l-7.1-10.6V41H138z"/>
		<path fill="#FFFFFF" d="M159,43.7l0-2.3c0.8,0.3,1.7,0.5,2.6,0.5c0.7,0,1.3-0.2,1.5-0.6s0.4-1.2,0.4-2.2V25.5h3.2v13.3
			c0,1.9-0.4,3.3-1.2,4.1s-2,1.3-3.8,1.3C160.9,44.1,160,44,159,43.7z"/>
		<path fill="#FFFFFF" d="M170.5,25.5h3.2V35c0,1.5,0.2,2.6,0.7,3.3c0.5,0.7,1.3,1,2.4,1c1.1,0,1.8-0.3,2.3-1s0.7-1.7,0.7-3.1v-9.7
			h2.8V35c0,1.4-0.1,2.5-0.4,3.3c-0.3,0.8-0.8,1.4-1.5,2c-1,0.8-2.3,1.1-4,1.1c-1.8,0-3.2-0.4-4.3-1.2c-0.7-0.6-1.3-1.2-1.6-2
			c-0.3-0.8-0.4-1.8-0.4-3.2V25.5z"/>
		<path fill="#FFFFFF" d="M185.6,40.9v-2.7c1.7,0.7,3.1,1,4.3,1c0.8,0,1.5-0.2,2-0.6c0.5-0.4,0.7-0.9,0.7-1.5c0-0.5-0.2-0.9-0.5-1.3
			s-0.9-0.8-1.7-1.2l-1-0.6c-1.4-0.8-2.4-1.5-2.9-2.3c-0.6-0.7-0.9-1.6-0.9-2.5c0-1.3,0.5-2.3,1.4-3.1c0.9-0.8,2.2-1.2,3.7-1.2
			c1.2,0,2.6,0.2,4.2,0.5v2.5c-1.6-0.6-2.8-0.9-3.8-0.9c-0.7,0-1.3,0.2-1.7,0.5c-0.4,0.3-0.6,0.7-0.6,1.3c0,0.4,0.2,0.8,0.5,1.1
			s0.9,0.7,1.7,1.2l1.1,0.6c1.5,0.8,2.5,1.6,3.1,2.3s0.8,1.6,0.8,2.6c0,1.4-0.5,2.6-1.6,3.4s-2.5,1.2-4.4,1.2
			C188.7,41.4,187.2,41.2,185.6,40.9z"/>
		<path fill="#FFFFFF" d="M202.6,41V27.6H197v-2.1h14.4v2.1h-5.6V41H202.6z"/>
		<path fill="#FFFFFF" d="M224.5,41V27.6h-5.6v-2.1h14.4v2.1h-5.6V41H224.5z"/>
		<path fill="#FFFFFF" d="M235.5,41V25.5h3.2v6.3h6.4v-6.3h3.2V41h-3.2v-7.1h-6.4V41H235.5z"/>
		<path fill="#FFFFFF" d="M252.2,41V25.5h9.7v2.1h-6.5v4.3h5.3V34h-5.3v4.8h7V41H252.2z"/>
		<path fill="#FFFFFF" d="M272.2,41V25.5h5.3c1.6,0,2.7,0.3,3.6,0.9c0.8,0.6,1.2,1.4,1.2,2.6c0,1.9-1.2,3.2-3.7,4
			c2.9,0.7,4.4,2.1,4.4,4.3c0,1.2-0.4,2.2-1.3,2.8c-0.9,0.7-2.1,1-3.7,1H272.2z M275.3,31.9h0.8c0.9,0,1.6-0.2,2.2-0.7
			c0.5-0.4,0.8-1.1,0.8-1.8c0-0.7-0.2-1.2-0.6-1.5c-0.4-0.3-1.2-0.4-2.4-0.4h-0.7V31.9z M275.3,38.8h0.7c1.4,0,2.3-0.1,2.8-0.4
			c0.5-0.3,0.8-0.8,0.8-1.6c0-0.8-0.3-1.4-1-2c-0.7-0.5-1.6-0.8-2.6-0.8h-0.6V38.8z"/>
		<path fill="#FFFFFF" d="M284,41l6-15.5h3.2l6,15.5h-3.3l-1.6-4.1H288l-1.6,4.1H284z M288.8,34.8h4.8l-2.4-6.2L288.8,34.8z"/>
		<path fill="#FFFFFF" d="M314.1,40.4c-1.5,0.7-3.3,1-5.4,1c-2.5,0-4.5-0.7-5.9-2.2s-2.1-3.4-2.1-6c0-2.6,0.7-4.6,2.1-6
			c1.4-1.4,3.5-2.1,6.1-2.1c1.7,0,3.4,0.2,5,0.6v2.5c-1.9-0.7-3.5-1-4.8-1c-1.6,0-2.9,0.5-3.8,1.6s-1.3,2.5-1.3,4.4
			c0,1.9,0.5,3.3,1.4,4.4c1,1,2.3,1.6,4,1.6c1.5,0,3.1-0.4,4.6-1.2V40.4z"/>
		<path fill="#FFFFFF" d="M316.9,41V25.5h3.1V33l5.9-7.5h2.7l-5.4,7l6.7,8.6h-4l-5.9-7.6V41H316.9z"/>
		<path fill="#FFFFFF" d="M332.1,41V25.5h5.3c1.6,0,2.7,0.3,3.6,0.9c0.8,0.6,1.2,1.4,1.2,2.6c0,1.9-1.2,3.2-3.7,4
			c2.9,0.7,4.4,2.1,4.4,4.3c0,1.2-0.4,2.2-1.3,2.8c-0.9,0.7-2.1,1-3.7,1H332.1z M335.2,31.9h0.8c0.9,0,1.6-0.2,2.2-0.7
			c0.5-0.4,0.8-1.1,0.8-1.8c0-0.7-0.2-1.2-0.6-1.5c-0.4-0.3-1.2-0.4-2.4-0.4h-0.7V31.9z M335.2,38.8h0.7c1.4,0,2.3-0.1,2.8-0.4
			c0.5-0.3,0.8-0.8,0.8-1.6c0-0.8-0.3-1.4-1-2c-0.7-0.5-1.6-0.8-2.6-0.8h-0.6V38.8z"/>
		<path fill="#FFFFFF" d="M352.5,41.4c-2.4,0-4.2-0.7-5.7-2.2c-1.4-1.5-2.1-3.5-2.1-5.9c0-2.5,0.7-4.5,2.1-5.9
			c1.4-1.5,3.3-2.2,5.8-2.2c2.4,0,4.3,0.7,5.7,2.2c1.4,1.5,2.1,3.4,2.1,5.9c0,2.5-0.7,4.5-2.1,6S354.9,41.4,352.5,41.4z M352.5,39.3
			c1.4,0,2.5-0.5,3.3-1.6s1.2-2.6,1.2-4.4c0-1.8-0.4-3.3-1.2-4.3s-1.9-1.6-3.2-1.6c-1.3,0-2.4,0.5-3.2,1.6c-0.8,1.1-1.2,2.5-1.2,4.4
			c0,1.8,0.4,3.3,1.2,4.4S351.2,39.3,352.5,39.3z"/>
		<path fill="#FFFFFF" d="M363.4,41V25.5h2.8l7.2,10.6V25.5h2.6V41h-2.9L366,30.4V41H363.4z"/>
		<path fill="#FFFFFF" d="M379.9,41V25.5h9.7v2.1h-6.5v4.3h5.3V34h-5.3v4.8h7V41H379.9z"/>
	</g>
</g>
</svg>
