<?xml version="1.0" encoding="utf-8"?>
<!-- Generator: Adobe Illustrator 18.0.0, SVG Export Plug-In . SVG Version: 6.00 Build 0)  -->
<!DOCTYPE svg PUBLIC "-//W3C//DTD SVG 1.1//EN" "http://www.w3.org/Graphics/SVG/1.1/DTD/svg11.dtd">
<svg version="1.1" xmlns="http://www.w3.org/2000/svg" xmlns:xlink="http://www.w3.org/1999/xlink" x="0px" y="0px" width="428px"
	 height="130.5px" viewBox="0 0 428 130.5" enable-background="new 0 0 428 130.5" xml:space="preserve">
<g id="Layer_1">
</g>
<g id="Layer_2">
	<path fill="#FFFFFF" d="M94.6,44.9c-4.2-2.4-12.8-5-13.1-9.8s0-6.9-5.5-9.9s-7.9-3.1-10.1-2.5s-3.9,2.4-8.1,2.8
		c-3.2,0.3-7-0.4-9.3-1.6c-3.7-1.8-6,1-7.9,3.7c-1.5,2.1-1.7,5.2-1.7,6.4c0,1.2,1.2,2.9,0.9,4.8c-0.2,1.8-1.7,4.8-2.8,9.1
		c-1.4,5.5-2,15.4,0.9,23.4s1.9,10.1,1.4,13.1s-1,8-0.8,9s10.6,11.1,25,7.5S80.8,90.6,81.2,90s-2.1-5-4.1-9.6S75.9,69.5,78.2,65
		s4.1-6.5,6.8-6.5s7.2,3,10.2-2.5S98.8,47.2,94.6,44.9z M59.1,43.2c1.3,0,2.4,1.1,2.4,2.4c0,1.3-1.1,2.4-2.4,2.4
		c-1.3,0-2.4-1.1-2.4-2.4C56.8,44.2,57.8,43.2,59.1,43.2z M54.8,51.4c1.5,0,2.7,1.2,2.7,2.7s-1.2,2.7-2.7,2.7s-2.7-1.2-2.7-2.7
		S53.3,51.4,54.8,51.4z M50.2,63.8c0-1.7,1.4-3,3-3c1.7,0,3,1.4,3,3c0,1.7-1.4,3-3,3C51.6,66.8,50.2,65.4,50.2,63.8z M55.8,75.9
		c-1.6,0-2.9-1.3-2.9-2.9c0-1.6,1.3-2.9,2.9-2.9c1.6,0,2.9,1.3,2.9,2.9C58.7,74.6,57.4,75.9,55.8,75.9z M58,82
		c0-1.4,1.1-2.5,2.5-2.5S63,80.6,63,82c0,1.4-1.1,2.5-2.5,2.5S58,83.4,58,82z M60.3,96.2c-0.7,0-1.3-0.6-1.3-1.3
		c0-0.7,0.6-1.3,1.3-1.3c0.7,0,1.3,0.6,1.3,1.3C61.6,95.6,61,96.2,60.3,96.2z M62.1,91.3c-1.1,0-2-0.9-2-2c0-1.1,0.9-2,2-2
		s2,0.9,2,2C64.1,90.5,63.2,91.3,62.1,91.3z M64.9,39.3c-1.1,0-2.1-0.9-2.1-2.1s0.9-2.1,2.1-2.1c1.1,0,2.1,0.9,2.1,2.1
		S66.1,39.3,64.9,39.3z M70.8,32.1c-0.9,0-1.7-0.7-1.7-1.7s0.7-1.7,1.7-1.7c0.9,0,1.7,0.7,1.7,1.7S71.7,32.1,70.8,32.1z"/>
	<g>
		<path fill="#FFFFFF" d="M138.6,88.8c-2.5,0.7-4.5,1.1-5.9,1.1c-9.1,0-13.7-4.3-13.7-12.8V56.6h-4.4v-6.6h4.4v-6.6l10.5-1.2v7.8
			h8.3v6.6h-8.3v19.1c0,4.8,2,7.2,5.9,7.2c0.9,0,2-0.2,3.2-0.5V88.8z"/>
		<path fill="#FFFFFF" d="M164.3,89.9c-6.1,0-10.9-1.8-14.5-5.5c-3.6-3.7-5.4-8.6-5.4-14.8c0-6.3,1.8-11.3,5.4-14.9
			c3.6-3.6,8.5-5.5,14.7-5.5c6.2,0,11.1,1.8,14.7,5.5c3.6,3.6,5.4,8.6,5.4,14.8c0,6.4-1.8,11.4-5.4,15
			C175.7,88.1,170.7,89.9,164.3,89.9z M164.5,83.3c6,0,9-4.6,9-13.9c0-4.2-0.8-7.6-2.4-10c-1.6-2.5-3.8-3.7-6.6-3.7
			c-2.8,0-4.9,1.2-6.5,3.7c-1.6,2.5-2.4,5.8-2.4,10.1c0,4.2,0.8,7.6,2.4,10.1C159.6,82.1,161.8,83.3,164.5,83.3z"/>
		<path fill="#FFFFFF" d="M194.4,89V50.1h10.5v7.3c2.7-5.5,6.9-8.2,12.4-8.2c0.7,0,1.3,0.1,2,0.2v9.4c-1.5-0.5-2.9-0.8-4.1-0.8
			c-4.2,0-7.6,2.1-10.2,6.3V89H194.4z"/>
		<path fill="#FFFFFF" d="M226.4,87.7V80c5.2,2.2,9.6,3.3,13.3,3.3c4.3,0,6.5-1.5,6.5-4.4c0-1.9-1.8-3.5-5.3-5l-3.5-1.4
			c-3.9-1.6-6.6-3.2-8.3-5c-1.7-1.8-2.5-4-2.5-6.7c0-3.7,1.4-6.6,4.2-8.6c2.8-2,6.7-3.1,11.8-3.1c3.2,0,6.9,0.5,11.3,1.4v7.4
			c-4.2-1.5-7.7-2.2-10.5-2.2c-4.4,0-6.5,1.3-6.5,4c0,1.8,1.6,3.3,4.8,4.5l3,1.2c4.6,1.7,7.7,3.5,9.5,5.2c1.8,1.8,2.7,4.1,2.7,6.8
			c0,3.7-1.5,6.6-4.6,8.9c-3,2.3-7,3.4-11.9,3.4C235.9,89.9,231.1,89.2,226.4,87.7z"/>
		<path fill="#FFFFFF" d="M284.8,89.9c-6.1,0-10.9-1.8-14.5-5.5c-3.6-3.7-5.4-8.6-5.4-14.8c0-6.3,1.8-11.3,5.4-14.9
			c3.6-3.6,8.5-5.5,14.7-5.5c6.2,0,11.1,1.8,14.7,5.5c3.6,3.6,5.4,8.6,5.4,14.8c0,6.4-1.8,11.4-5.4,15
			C296.1,88.1,291.2,89.9,284.8,89.9z M285,83.3c6,0,9-4.6,9-13.9c0-4.2-0.8-7.6-2.4-10c-1.6-2.5-3.8-3.7-6.6-3.7
			c-2.8,0-4.9,1.2-6.5,3.7c-1.6,2.5-2.4,5.8-2.4,10.1c0,4.2,0.8,7.6,2.4,10.1C280.1,82.1,282.2,83.3,285,83.3z"/>
		<path fill="#FFFFFF" d="M311.6,89V77.6H323V89H311.6z"/>
		<path fill="#FFFFFF" d="M319.9,102.2v-7c3,1.4,5.7,2.1,7.8,2.1c2,0,3.5-0.6,4.3-1.9c0.9-1.3,1.3-3.4,1.3-6.4V50.1h10.5v38.2
			c0,5.4-1.2,9.4-3.6,11.9c-2.4,2.5-6.3,3.7-11.6,3.7C326.2,103.9,323.3,103.3,319.9,102.2z M333.3,43.5v-8.8h10.5v8.8H333.3z"/>
		<path fill="#FFFFFF" d="M355.9,87.7V80c5.2,2.2,9.6,3.3,13.3,3.3c4.3,0,6.5-1.5,6.5-4.4c0-1.9-1.8-3.5-5.3-5l-3.5-1.4
			c-3.9-1.6-6.6-3.2-8.3-5c-1.7-1.8-2.5-4-2.5-6.7c0-3.7,1.4-6.6,4.2-8.6c2.8-2,6.7-3.1,11.8-3.1c3.2,0,6.9,0.5,11.3,1.4v7.4
			c-4.2-1.5-7.7-2.2-10.5-2.2c-4.4,0-6.5,1.3-6.5,4c0,1.8,1.6,3.3,4.8,4.5l3,1.2c4.6,1.7,7.7,3.5,9.5,5.2c1.8,1.8,2.7,4.1,2.7,6.8
			c0,3.7-1.5,6.6-4.6,8.9c-3,2.3-7,3.4-11.9,3.4C365.4,89.9,360.7,89.2,355.9,87.7z"/>
	</g>
</g>
</svg>
